<?xml version="1.0" encoding="UTF-8" standalone="no"?>
<!DOCTYPE svg PUBLIC "-//W3C//DTD SVG 1.1//EN"
 "http://www.w3.org/Graphics/SVG/1.1/DTD/svg11.dtd">
<!-- Generated by graphviz version 2.40.1 (20161225.0304)
 -->
<!-- Title: G Pages: 1 -->
<svg width="890pt" height="404pt"
 viewBox="0.00 0.00 890.13 404.00" xmlns="http://www.w3.org/2000/svg" xmlns:xlink="http://www.w3.org/1999/xlink">
<g id="graph0" class="graph" transform="scale(1 1) rotate(0) translate(4 400)">
<title>G</title>
<polygon fill="#ffffff" stroke="transparent" points="-4,4 -4,-400 886.1332,-400 886.1332,4 -4,4"/>
<!-- internal/race -->
<g id="node1" class="node">
<title>internal/race</title>
<ellipse fill="none" stroke="#000000" cx="260.9441" cy="-162" rx="70.6878" ry="18"/>
<text text-anchor="middle" x="260.9441" y="-158.3" font-family="Times,serif" font-size="14.00" fill="#000000">internal/race</text>
</g>
<!-- unsafe -->
<g id="node2" class="node">
<title>unsafe</title>
<ellipse fill="none" stroke="#000000" cx="294.9441" cy="-18" rx="41.6928" ry="18"/>
<text text-anchor="middle" x="294.9441" y="-14.3" font-family="Times,serif" font-size="14.00" fill="#000000">unsafe</text>
</g>
<!-- internal/race&#45;&gt;unsafe -->
<g id="edge1" class="edge">
<title>internal/race&#45;&gt;unsafe</title>
<path fill="none" stroke="#000000" d="M265.2502,-143.7623C271.0749,-119.0928 281.5188,-74.8598 288.3393,-45.9731"/>
<polygon fill="#000000" stroke="#000000" points="291.7812,-46.6263 290.6729,-36.0896 284.9686,-45.0177 291.7812,-46.6263"/>
</g>
<!-- runtime -->
<g id="node3" class="node">
<title>runtime</title>
<ellipse fill="none" stroke="#000000" cx="435.9441" cy="-162" rx="48.1917" ry="18"/>
<text text-anchor="middle" x="435.9441" y="-158.3" font-family="Times,serif" font-size="14.00" fill="#000000">runtime</text>
</g>
<!-- runtime&#45;&gt;unsafe -->
<g id="edge4" class="edge">
<title>runtime&#45;&gt;unsafe</title>
<path fill="none" stroke="#000000" d="M422.0026,-144.4065C406.9283,-125.7546 381.8405,-95.7662 357.9441,-72 346.9304,-61.0464 334.0178,-49.7399 322.7598,-40.3211"/>
<polygon fill="#000000" stroke="#000000" points="324.8431,-37.5022 314.9055,-33.8285 320.3831,-42.8975 324.8431,-37.5022"/>
</g>
<!-- runtime/internal/atomic -->
<g id="node4" class="node">
<title>runtime/internal/atomic</title>
<ellipse fill="none" stroke="#000000" cx="759.9441" cy="-90" rx="122.3786" ry="18"/>
<text text-anchor="middle" x="759.9441" y="-86.3" font-family="Times,serif" font-size="14.00" fill="#000000">runtime/internal/atomic</text>
</g>
<!-- runtime&#45;&gt;runtime/internal/atomic -->
<g id="edge2" class="edge">
<title>runtime&#45;&gt;runtime/internal/atomic</title>
<path fill="none" stroke="#000000" d="M477.308,-152.808C528.8034,-141.3646 617.817,-121.5838 682.2124,-107.2737"/>
<polygon fill="#000000" stroke="#000000" points="683.324,-110.6121 692.3266,-105.0261 681.8054,-103.7788 683.324,-110.6121"/>
</g>
<!-- runtime/internal/sys -->
<g id="node5" class="node">
<title>runtime/internal/sys</title>
<ellipse fill="none" stroke="#000000" cx="514.9441" cy="-90" rx="105.0817" ry="18"/>
<text text-anchor="middle" x="514.9441" y="-86.3" font-family="Times,serif" font-size="14.00" fill="#000000">runtime/internal/sys</text>
</g>
<!-- runtime&#45;&gt;runtime/internal/sys -->
<g id="edge3" class="edge">
<title>runtime&#45;&gt;runtime/internal/sys</title>
<path fill="none" stroke="#000000" d="M454.2668,-145.3008C464.2661,-136.1875 476.836,-124.7314 487.938,-114.6131"/>
<polygon fill="#000000" stroke="#000000" points="490.3065,-117.19 495.3399,-107.8671 485.5913,-112.0164 490.3065,-117.19"/>
</g>
<!-- runtime/internal/atomic&#45;&gt;unsafe -->
<g id="edge5" class="edge">
<title>runtime/internal/atomic&#45;&gt;unsafe</title>
<path fill="none" stroke="#000000" d="M675.4665,-76.9196C578.7396,-61.9425 423.4998,-37.9054 344.5366,-25.6788"/>
<polygon fill="#000000" stroke="#000000" points="344.7921,-22.1768 334.3742,-24.1053 343.7209,-29.0943 344.7921,-22.1768"/>
</g>
<!-- sync -->
<g id="node6" class="node">
<title>sync</title>
<ellipse fill="none" stroke="#000000" cx="261.9441" cy="-234" rx="32.4942" ry="18"/>
<text text-anchor="middle" x="261.9441" y="-230.3" font-family="Times,serif" font-size="14.00" fill="#000000">sync</text>
</g>
<!-- sync&#45;&gt;internal/race -->
<g id="edge6" class="edge">
<title>sync&#45;&gt;internal/race</title>
<path fill="none" stroke="#000000" d="M261.6917,-215.8314C261.5848,-208.131 261.4576,-198.9743 261.3387,-190.4166"/>
<polygon fill="#000000" stroke="#000000" points="264.8384,-190.3637 261.1998,-180.4133 257.8391,-190.4609 264.8384,-190.3637"/>
</g>
<!-- sync&#45;&gt;unsafe -->
<g id="edge9" class="edge">
<title>sync&#45;&gt;unsafe</title>
<path fill="none" stroke="#000000" d="M234.799,-224.0001C215.9517,-215.46 192.2684,-201.1597 180.9441,-180 173.3943,-165.8932 175.1922,-158.9304 180.9441,-144 197.7385,-100.4054 237.3811,-62.5287 265.1761,-39.9787"/>
<polygon fill="#000000" stroke="#000000" points="267.3629,-42.7115 273.0275,-33.7581 263.0158,-37.2248 267.3629,-42.7115"/>
</g>
<!-- sync&#45;&gt;runtime -->
<g id="edge7" class="edge">
<title>sync&#45;&gt;runtime</title>
<path fill="none" stroke="#000000" d="M287.9936,-223.2209C316.037,-211.6167 361.0598,-192.9866 394.0824,-179.3221"/>
<polygon fill="#000000" stroke="#000000" points="395.5811,-182.4898 403.483,-175.4322 392.9046,-176.0217 395.5811,-182.4898"/>
</g>
<!-- sync/atomic -->
<g id="node7" class="node">
<title>sync/atomic</title>
<ellipse fill="none" stroke="#000000" cx="66.9441" cy="-90" rx="66.8882" ry="18"/>
<text text-anchor="middle" x="66.9441" y="-86.3" font-family="Times,serif" font-size="14.00" fill="#000000">sync/atomic</text>
</g>
<!-- sync&#45;&gt;sync/atomic -->
<g id="edge8" class="edge">
<title>sync&#45;&gt;sync/atomic</title>
<path fill="none" stroke="#000000" d="M234.0053,-224.3497C209.8243,-215.1929 174.6404,-199.884 147.9441,-180 123.5659,-161.8427 100.8843,-135.4827 85.7606,-115.9798"/>
<polygon fill="#000000" stroke="#000000" points="88.3984,-113.6662 79.562,-107.8208 82.8245,-117.9008 88.3984,-113.6662"/>
</g>
<!-- sync/atomic&#45;&gt;unsafe -->
<g id="edge10" class="edge">
<title>sync/atomic&#45;&gt;unsafe</title>
<path fill="none" stroke="#000000" d="M110.3658,-76.2879C150.9488,-63.4722 211.2054,-44.4438 251.7233,-31.6487"/>
<polygon fill="#000000" stroke="#000000" points="252.8392,-34.9667 261.321,-28.6178 250.7312,-28.2916 252.8392,-34.9667"/>
</g>
<!-- syscall -->
<g id="node8" class="node">
<title>syscall</title>
<ellipse fill="none" stroke="#000000" cx="359.9441" cy="-306" rx="42.4939" ry="18"/>
<text text-anchor="middle" x="359.9441" y="-302.3" font-family="Times,serif" font-size="14.00" fill="#000000">syscall</text>
</g>
<!-- syscall&#45;&gt;internal/race -->
<g id="edge11" class="edge">
<title>syscall&#45;&gt;internal/race</title>
<path fill="none" stroke="#000000" d="M349.5029,-288.4218C338.4254,-270.0402 320.1772,-240.5101 302.9441,-216 296.3179,-206.5758 288.6831,-196.5406 281.7555,-187.7104"/>
<polygon fill="#000000" stroke="#000000" points="284.3401,-185.3366 275.3862,-179.6729 278.8539,-189.6842 284.3401,-185.3366"/>
</g>
<!-- syscall&#45;&gt;unsafe -->
<g id="edge14" class="edge">
<title>syscall&#45;&gt;unsafe</title>
<path fill="none" stroke="#000000" d="M359.1916,-287.7807C357.6361,-257.5422 353.1261,-195.2429 340.9441,-144 332.6232,-108.9986 317.5924,-70.3543 306.9808,-45.2114"/>
<polygon fill="#000000" stroke="#000000" points="310.1695,-43.7665 303.0146,-35.9525 303.735,-46.5228 310.1695,-43.7665"/>
</g>
<!-- syscall&#45;&gt;runtime -->
<g id="edge12" class="edge">
<title>syscall&#45;&gt;runtime</title>
<path fill="none" stroke="#000000" d="M369.2632,-288.3428C382.3682,-263.5122 406.3536,-218.066 421.7027,-188.9836"/>
<polygon fill="#000000" stroke="#000000" points="424.9765,-190.2792 426.5487,-179.8017 418.7858,-187.0118 424.9765,-190.2792"/>
</g>
<!-- syscall&#45;&gt;sync -->
<g id="edge13" class="edge">
<title>syscall&#45;&gt;sync</title>
<path fill="none" stroke="#000000" d="M338.6795,-290.3771C324.4301,-279.9081 305.5146,-266.011 290.0296,-254.6343"/>
<polygon fill="#000000" stroke="#000000" points="291.9623,-251.7111 281.8312,-248.6109 287.8177,-257.3523 291.9623,-251.7111"/>
</g>
<!-- time -->
<g id="node9" class="node">
<title>time</title>
<ellipse fill="none" stroke="#000000" cx="397.9441" cy="-378" rx="31.6951" ry="18"/>
<text text-anchor="middle" x="397.9441" y="-374.3" font-family="Times,serif" font-size="14.00" fill="#000000">time</text>
</g>
<!-- time&#45;&gt;runtime -->
<g id="edge16" class="edge">
<title>time&#45;&gt;runtime</title>
<path fill="none" stroke="#000000" d="M402.6533,-360.0823C405.3063,-349.6097 408.5563,-336.1097 410.9441,-324 420.1438,-277.3425 427.9857,-222.5685 432.3223,-190.1557"/>
<polygon fill="#000000" stroke="#000000" points="435.8154,-190.4371 433.6555,-180.0648 428.8757,-189.5202 435.8154,-190.4371"/>
</g>
<!-- time&#45;&gt;sync -->
<g id="edge17" class="edge">
<title>time&#45;&gt;sync</title>
<path fill="none" stroke="#000000" d="M372.3683,-367.1281C353.0429,-357.9 326.8712,-343.1146 308.9441,-324 292.0008,-305.9344 279.4979,-280.5876 271.6652,-261.3945"/>
<polygon fill="#000000" stroke="#000000" points="274.8913,-260.0338 267.9961,-251.9898 268.37,-262.578 274.8913,-260.0338"/>
</g>
<!-- time&#45;&gt;syscall -->
<g id="edge18" class="edge">
<title>time&#45;&gt;syscall</title>
<path fill="none" stroke="#000000" d="M388.7453,-360.5708C384.3303,-352.2055 378.943,-341.998 374.0272,-332.6839"/>
<polygon fill="#000000" stroke="#000000" points="377.0851,-330.9791 369.3221,-323.7689 370.8944,-334.2464 377.0851,-330.9791"/>
</g>
<!-- errors -->
<g id="node10" class="node">
<title>errors</title>
<ellipse fill="none" stroke="#000000" cx="503.9441" cy="-306" rx="39.7935" ry="18"/>
<text text-anchor="middle" x="503.9441" y="-302.3" font-family="Times,serif" font-size="14.00" fill="#000000">errors</text>
</g>
<!-- time&#45;&gt;errors -->
<g id="edge15" class="edge">
<title>time&#45;&gt;errors</title>
<path fill="none" stroke="#000000" d="M418.3819,-364.1177C433.9956,-353.5122 455.7649,-338.7255 473.4375,-326.7214"/>
<polygon fill="#000000" stroke="#000000" points="475.4336,-329.5967 481.7391,-321.0826 471.5003,-323.8062 475.4336,-329.5967"/>
</g>
</g>
</svg>
